# xmcd CD database file
# Copyright (C) 1997 Ti Kan
# 
# Track frame offsets:
#     150
#     19142
#     36757
#     59070
#     74577
#     99482
#     121730
#     138422
#     162517
#     181820
# 
# Disc length: 2626 seconds
# 
# Revision: 1
# Processed by: cddbd v1.4b41PL1 Copyright (c) Steve Scherf et al.
# Submitted via: DiscPlay 4.0.4
# 
DISCID=8c0a400a
DTITLE=Raimundo Fagner - Cartaz
DYEAR=1900
DGENRE=
TTITLE0=Revela  o
TTITLE1=Eternas Ondas
TTITLE2=Quem Me Levar  Sou Eu
TTITLE3=Qualquer Musica
TTITLE4=Noturno
TTITLE5=Jura Secreta
TTITLE6=Fanatismo
TTITLE7=Cartaz
TTITLE8=Guerreiro Menino (Um Homem Tamb m Chora)
TTITLE9=Conflito
EXTD=
EXTT0=
EXTT1=
EXTT2=
EXTT3=
EXTT4=
EXTT5=
EXTT6=
EXTT7=
EXTT8=
EXTT9=
PLAYORDER=
